<svg width="1280" height="549" fill="none" xmlns="http://www.w3.org/2000/svg"><rect width="1280" height="549" rx="12" fill="#D8D9FC"/><mask id="a" style="mask-type:alpha" maskUnits="userSpaceOnUse" x="0" y="0" width="1280" height="549"><rect width="1280" height="549" rx="12" fill="#D8D9FC"/></mask><g mask="url(#a)"><path d="M-198.128 195.031c-107.437 254.985 12.173 548.786 267.157 656.223 254.985 107.438 548.786-12.172 656.224-267.157C832.69 329.113 713.08 35.311 458.095-72.126 203.111-179.564-90.69-59.953-198.128 195.03z" fill="url(#paint0_linear_18)"/><path d="M1556.55 558.227c-45.34-272.954-303.37-457.471-576.323-412.13-272.954 45.341-457.472 303.37-412.131 576.325 45.341 272.954 303.371 457.468 576.324 412.128 272.96-45.34 457.47-303.368 412.13-576.323z" fill="url(#paint1_linear_18)"/></g><defs><linearGradient id="paint0_linear_18" x1="-239.623" y1="570.369" x2="636.917" y2="793.747" gradientUnits="userSpaceOnUse"><stop stop-color="#F0F1FD"/><stop offset=".622" stop-color="#F0F1FD" stop-opacity=".467"/><stop offset="1" stop-color="#F0F1FD" stop-opacity="0"/></linearGradient><linearGradient id="paint1_linear_18" x1="1391.19" y1="218.736" x2="530.817" y2="497.997" gradientUnits="userSpaceOnUse"><stop stop-color="#F0F1FD"/><stop offset=".622" stop-color="#F0F1FD" stop-opacity=".467"/><stop offset="1" stop-color="#F0F1FD" stop-opacity="0"/></linearGradient></defs></svg>